<svg xmlns="http://www.w3.org/2000/svg" fill="none" viewBox="37.44956147540984 39.635892 41.11885245901639 44.064" style="max-height: 500px" width="41.11885245901639" height="44.064">
<g filter="url(#filter0_d_1_6750)">
<path fill="white" d="M55.8889 61L52.2222 69H59.5556L55.8889 61Z"/>
<path fill="white" d="M66.7778 77H51.2222C47.7858 77 45 74.3951 45 71.1818V50.8182C45 47.6049 47.7858 45 51.2222 45H59.9635C61.5896 45 63.151 45.5952 64.3136 46.6581L71.1278 52.8883C72.3251 53.983 73 55.4826 73 57.0484V71.1818C73 74.3951 70.2142 77 66.7778 77ZM55.8889 61L52.2222 69H59.5556L55.8889 61Z" clip-rule="evenodd" fill-rule="evenodd"/>
<path fill="url(#paint0_linear_1_6750)" d="M71.1278 52.8883L71.8026 52.1503L71.8026 52.1503L71.1278 52.8883ZM64.3136 46.6581L64.9884 45.9201V45.9201L64.3136 46.6581ZM50.3132 70.7652C50.083 71.2672 50.3035 71.8608 50.8056 72.0909C51.3076 72.321 51.9012 72.1005 52.1313 71.5985L50.3132 70.7652ZM52.2222 69L51.3132 68.5833L52.2222 69ZM55.8889 61L56.798 60.5833C56.635 60.2279 56.2799 60 55.8889 60C55.4979 60 55.1427 60.2279 54.9798 60.5833L55.8889 61ZM59.5556 69L60.4646 68.5833L59.5556 69ZM59.6465 71.5985C59.8766 72.1005 60.4701 72.321 60.9722 72.0909C61.4743 71.8608 61.6947 71.2672 61.4646 70.7652L59.6465 71.5985ZM66.7778 76H51.2222V78H66.7778V76ZM46 71.1818V50.8182H44V71.1818H46ZM72 57.0484V71.1818H74V57.0484H72ZM51.2222 46H59.9635V44H51.2222V46ZM71.8026 52.1503L64.9884 45.9201L63.6388 47.3962L70.4531 53.6263L71.8026 52.1503ZM61.5 45.8V51.6909H63.5V45.8H61.5ZM65.6111 55.6H72.125V53.6H65.6111V55.6ZM61.5 51.6909C61.5 53.912 63.4049 55.6 65.6111 55.6V53.6C64.3809 53.6 63.5 52.6831 63.5 51.6909H61.5ZM59.9635 46C61.3487 46 62.667 46.5076 63.6388 47.3962L64.9884 45.9201C63.635 44.6827 61.8304 44 59.9635 44V46ZM74 57.0484C74 55.1906 73.1986 53.4266 71.8026 52.1503L70.4531 53.6263C71.4516 54.5393 72 55.7746 72 57.0484H74ZM51.2222 76C48.2738 76 46 73.7806 46 71.1818H44C44 75.0096 47.2978 78 51.2222 78V76ZM66.7778 78C70.7022 78 74 75.0096 74 71.1818H72C72 73.7806 69.7262 76 66.7778 76V78ZM46 50.8182C46 48.2194 48.2738 46 51.2222 46V44C47.2978 44 44 46.9904 44 50.8182H46ZM52.1313 71.5985L53.1313 69.4167L51.3132 68.5833L50.3132 70.7652L52.1313 71.5985ZM53.1313 69.4167L56.798 61.4167L54.9798 60.5833L51.3132 68.5833L53.1313 69.4167ZM54.9798 61.4167L58.6465 69.4167L60.4646 68.5833L56.798 60.5833L54.9798 61.4167ZM58.6465 69.4167L59.6465 71.5985L61.4646 70.7652L60.4646 68.5833L58.6465 69.4167ZM52.2222 70H59.5556V68H52.2222V70Z"/>
</g>
<defs>
<filter color-interpolation-filters="sRGB" filterUnits="userSpaceOnUse" height="162" width="158" y="0" x="0" id="filter0_d_1_6750">
<feFlood result="BackgroundImageFix" flood-opacity="0"/>
<feColorMatrix result="hardAlpha" values="0 0 0 0 0 0 0 0 0 0 0 0 0 0 0 0 0 0 127 0" type="matrix" in="SourceAlpha"/>
<feOffset dy="20" dx="20"/>
<feGaussianBlur stdDeviation="32"/>
<feColorMatrix values="0 0 0 0 0 0 0 0 0 0 0 0 0 0 0 0 0 0 0.16 0" type="matrix"/>
<feBlend result="effect1_dropShadow_1_6750" in2="BackgroundImageFix" mode="normal"/>
<feBlend result="shape" in2="effect1_dropShadow_1_6750" in="SourceGraphic" mode="normal"/>
</filter>
<linearGradient gradientUnits="userSpaceOnUse" y2="50.3436" x2="40.6817" y1="45" x1="73.6667" id="paint0_linear_1_6750">
<stop stop-color="#FBDF06"/>
<stop stop-color="#FEB700" offset="1"/>
</linearGradient>
</defs>
</svg>