<svg width="32" height="32" viewBox="0 0 32 32" fill="none" xmlns="http://www.w3.org/2000/svg">
<g opacity="0.8">
<path d="M6.39952 28.8001C8.16683 28.8001 9.59952 27.3675 9.59952 25.6001C9.59952 23.8328 8.16683 22.4001 6.39952 22.4001C4.63221 22.4001 3.19952 23.8328 3.19952 25.6001C3.19952 27.3675 4.63221 28.8001 6.39952 28.8001Z" stroke="black" stroke-width="2" stroke-linecap="round" stroke-linejoin="round"/>
<path d="M25.5987 28.7999C27.3661 28.7999 28.7987 27.3672 28.7987 25.5999C28.7987 23.8326 27.3661 22.3999 25.5987 22.3999C23.8314 22.3999 22.3987 23.8326 22.3987 25.5999C22.3987 27.3672 23.8314 28.7999 25.5987 28.7999Z" stroke="black" stroke-width="2" stroke-linecap="round" stroke-linejoin="round"/>
<path d="M6.39874 18.4002C7.72545 18.4002 8.81152 18.7097 9.69969 19.2002C13.096 21.076 13.5987 25.6003 13.5987 25.6003H18.3987C18.3987 25.6003 19.1987 18.4003 25.5987 18.4003L22.3987 3.2002H17.5987" stroke="black" stroke-width="2" stroke-linecap="round" stroke-linejoin="round"/>
</g>
</svg>
