<svg width="32" height="32" viewBox="0 0 32 32" fill="none" xmlns="http://www.w3.org/2000/svg">
<g opacity="0.8" clip-path="url(#clip0_1_6083)">
<path d="M27.1999 22.3999V22.3999C28.9672 22.3999 30.3999 20.9672 30.3999 19.1999V16.7999C30.3999 16.0568 30.3999 15.6853 30.3588 15.3734C30.0752 13.2195 28.3803 11.5245 26.2264 11.241C25.9145 11.1999 25.5429 11.1999 24.7998 11.1999H23.9999M4.79985 22.3999V22.3999C3.03254 22.3999 1.59985 20.9672 1.59985 19.1999V13.194C1.59985 12.2435 1.59985 11.7682 1.69157 11.3058C1.70247 11.2508 1.71434 11.196 1.72716 11.1415C1.83502 10.6825 2.03168 10.2499 2.42501 9.38455L3.0419 8.02739C4.284 5.29478 4.90505 3.92847 6.09199 3.16419C7.27892 2.3999 8.77975 2.3999 11.7814 2.3999H12.7113C15.1087 2.3999 16.3073 2.3999 17.3337 2.92255C18.3601 3.4452 19.0651 4.41462 20.4752 6.35345L23.9999 11.1999M11.1999 22.3999H20.7999M23.9999 11.1999H2.39985" stroke="black" stroke-width="2" stroke-linecap="round"/>
<path d="M7.99907 25.6002C9.76638 25.6002 11.1991 24.1675 11.1991 22.4002C11.1991 20.6329 9.76638 19.2002 7.99907 19.2002C6.23176 19.2002 4.79907 20.6329 4.79907 22.4002C4.79907 24.1675 6.23176 25.6002 7.99907 25.6002Z" stroke="black" stroke-width="2" stroke-linecap="round" stroke-linejoin="round"/>
<path d="M23.9991 25.6002C25.7664 25.6002 27.1991 24.1675 27.1991 22.4002C27.1991 20.6329 25.7664 19.2002 23.9991 19.2002C22.2318 19.2002 20.7991 20.6329 20.7991 22.4002C20.7991 24.1675 22.2318 25.6002 23.9991 25.6002Z" stroke="black" stroke-width="2" stroke-linecap="round" stroke-linejoin="round"/>
</g>
<defs>
<clipPath id="clip0_1_6083">
<rect width="32" height="32" fill="white" transform="translate(0.000244141)"/>
</clipPath>
</defs>
</svg>
