<svg width="32" height="32" viewBox="0 0 32 32" fill="none" xmlns="http://www.w3.org/2000/svg">
<g opacity="0.8">
<path d="M19.3899 25.6399L20.1397 26.3017L19.3899 25.6399ZM12.6091 25.6399L13.3589 24.9782L12.6091 25.6399ZM4.45645 9.651L5.20619 10.3127H5.20619L4.45645 9.651ZM4.45645 16.4032L3.70672 17.0649H3.70672L4.45645 16.4032ZM27.5426 9.651L26.7929 10.3127L27.5426 9.651ZM27.5426 16.4032L26.7929 15.7414L27.5426 16.4032ZM24.638 6.36018L25.3877 5.69844V5.69844L24.638 6.36018ZM7.36104 6.36018L6.6113 5.69844L7.36104 6.36018ZM28.344 13.5128C28.8963 13.5128 29.344 13.0651 29.344 12.5128C29.344 11.9605 28.8963 11.5128 28.344 11.5128L28.344 13.5128ZM3.65506 11.5128C3.10278 11.5128 2.65506 11.9605 2.65506 12.5128C2.65506 13.0651 3.10278 13.5128 3.65506 13.5128L3.65506 11.5128ZM15.806 27.1958L14.8719 27.553C15.0143 27.9252 15.364 28.1773 15.762 28.1948L15.806 27.1958ZM10.1903 12.5128L9.3819 11.9242L9.06239 12.363L9.2563 12.87L10.1903 12.5128ZM21.8087 12.5128L22.7343 12.8912L22.9534 12.3554L22.5979 11.8986L21.8087 12.5128ZM23.8883 7.02192L26.7929 10.3127L28.2923 8.98926L25.3877 5.69844L23.8883 7.02192ZM5.20619 10.3127L8.11077 7.02192L6.6113 5.69844L3.70672 8.98926L5.20619 10.3127ZM26.7929 15.7414L18.6402 24.9782L20.1397 26.3017L28.2923 17.0649L26.7929 15.7414ZM13.3589 24.9782L5.20619 15.7414L3.70672 17.0649L11.8594 26.3017L13.3589 24.9782ZM18.6402 24.9782C17.2022 26.6073 14.7968 26.6073 13.3589 24.9782L11.8594 26.3017C14.0935 28.8328 17.9055 28.8328 20.1397 26.3017L18.6402 24.9782ZM3.70672 8.98926C1.69712 11.2661 1.69713 14.7881 3.70672 17.0649L5.20619 15.7414C3.86397 14.2207 3.86397 11.8334 5.20619 10.3127L3.70672 8.98926ZM26.7929 10.3127C28.1351 11.8334 28.1351 14.2207 26.7929 15.7414L28.2923 17.0649C30.3019 14.7881 30.3019 11.2661 28.2923 8.98926L26.7929 10.3127ZM21.2476 5.80005C22.2345 5.80005 23.1923 6.23337 23.8883 7.02192L25.3877 5.69844C24.3266 4.49621 22.8298 3.80005 21.2476 3.80005V5.80005ZM10.7514 3.80005C9.16922 3.80005 7.67243 4.49621 6.6113 5.69844L8.11077 7.02192C8.80677 6.23337 9.76453 5.80005 10.7514 5.80005V3.80005ZM28.344 11.5128L3.65506 11.5128L3.65506 13.5128L28.344 13.5128L28.344 11.5128ZM16.74 26.8386L11.1243 12.1556L9.2563 12.87L14.8719 27.553L16.74 26.8386ZM16.7316 27.5742L22.7343 12.8912L20.8831 12.1344L14.8803 26.8174L16.7316 27.5742ZM10.9987 13.1014L16.6144 5.38866L14.9975 4.21144L9.3819 11.9242L10.9987 13.1014ZM22.5979 11.8986L16.5951 4.18586L15.0168 5.41424L21.0195 13.127L22.5979 11.8986ZM10.1903 13.5128H21.8087V11.5128H10.1903V13.5128ZM10.7514 5.80005H15.806V3.80005H10.7514V5.80005ZM15.806 5.80005H21.2476V3.80005H15.806V5.80005ZM18.6402 24.9782C17.8757 25.8443 16.85 26.2407 15.8499 26.1968L15.762 28.1948C17.3615 28.2651 18.9722 27.6243 20.1397 26.3017L18.6402 24.9782Z" fill="black"/>
</g>
</svg>
