<svg width="32" height="32" viewBox="0 0 32 32" fill="none" xmlns="http://www.w3.org/2000/svg">
<g opacity="0.8">
<path d="M4.35379 16.0174C3.18713 15.5651 2.50943 14.1212 2.91878 12.7446L4.98829 5.78502C5.3044 4.71903 6.1936 4 7.19652 4H24.7987C25.8016 4 26.6908 4.71903 27.0092 5.78502L29.0787 12.7446C29.5154 14.2131 28.7171 15.7578 27.4026 16.094C27.3913 16.097 27.3799 16.0995 27.3685 16.1023C27.3049 16.1177 27.2366 16.1306 27.1684 16.14C25.979 16.3068 24.776 15.949 23.8163 15.1421L22.9839 14.4421L22.545 14.8359C21.0531 16.1738 18.9836 16.3547 17.3257 15.2921L15.9976 14.4421L14.6718 15.2921C14.6649 15.2962 14.6581 15.3004 14.6513 15.3045C12.9934 16.3532 10.9353 16.1686 9.45024 14.8359L9.01132 14.4421L8.17897 15.1421C7.21926 15.949 6.01849 16.3068 4.82682 16.14C4.81545 16.1384 4.80408 16.1367 4.79271 16.1349C4.64034 16.111 4.49251 16.0715 4.35379 16.0174ZM4.35379 16.0174V26.8421C4.35379 27.9234 5.13611 28.8 6.10036 28.8H10.9045C11.7881 28.8 12.5045 28.0837 12.5045 27.2V22.9263C12.5045 21.845 13.2868 20.9684 14.251 20.9684H17.7442C18.7084 20.9684 19.4908 21.845 19.4908 22.9263V27.2C19.4908 28.0837 20.2071 28.8 21.0908 28.8H25.8949C26.8591 28.8 27.6414 27.9234 27.6414 26.8421V16.0177" stroke="black" stroke-width="2" stroke-linecap="round"/>
</g>
</svg>
