<svg width="32" height="32" viewBox="0 0 32 32" fill="none" xmlns="http://www.w3.org/2000/svg">
<g opacity="0.8" clip-path="url(#clip0_1_6087)">
<path d="M11.7784 11.7799L20.2189 20.2203M29.0814 18.5322L26.1272 15.5781C25.7776 15.2285 25.2108 15.2285 24.8612 15.5781L15.5767 24.8626C15.227 25.2122 15.227 25.779 15.5767 26.1287L18.5308 29.0828C18.8804 29.4324 19.4473 29.4324 19.7969 29.0828L29.0814 19.7983C29.431 19.4487 29.431 18.8819 29.0814 18.5322ZM16.4207 5.87153L13.4665 2.91737C13.1169 2.56775 12.5501 2.56775 12.2005 2.91737L2.91595 12.2019C2.56634 12.5515 2.56634 13.1183 2.91595 13.468L5.87012 16.4221C6.21973 16.7717 6.78657 16.7717 7.13619 16.4221L16.4207 7.1376C16.7703 6.78799 16.7703 6.22115 16.4207 5.87153ZM30.1365 25.0736L25.0722 30.1379C24.7226 30.4875 24.1557 30.4875 23.8061 30.1379L21.907 28.2388C21.5574 27.8892 21.5574 27.3223 21.907 26.9727L26.9713 21.9084C27.3209 21.5588 27.8877 21.5588 28.2374 21.9084L30.1365 23.8075C30.4861 24.1571 30.4861 24.724 30.1365 25.0736ZM6.92518 1.86231L1.86089 6.92659C1.51128 7.27621 1.51128 7.84305 1.86089 8.19266L3.76 10.0918C4.10962 10.4414 4.67646 10.4414 5.02607 10.0918L10.0904 5.02749C10.44 4.67787 10.44 4.11103 10.0904 3.76142L8.19125 1.86231C7.84163 1.51269 7.27479 1.51269 6.92518 1.86231Z" stroke="black" stroke-width="2" stroke-linecap="round" stroke-linejoin="round"/>
</g>
<defs>
<clipPath id="clip0_1_6087">
<rect width="32" height="32" fill="white" transform="translate(0.000244141)"/>
</clipPath>
</defs>
</svg>
