<svg width="32" height="32" viewBox="0 0 32 32" fill="none" xmlns="http://www.w3.org/2000/svg">
<g opacity="0.8">
<path d="M3.99952 17.6001H5.59952C8.69232 17.6001 11.1995 20.1073 11.1995 23.2001V24.8001C11.1995 27.0092 9.40866 28.8001 7.19952 28.8001V28.8001C4.99039 28.8001 3.19952 27.0092 3.19952 24.8001V16.0001C3.19952 8.93084 8.93028 3.20007 15.9995 3.20007V3.20007C23.0688 3.20007 28.7995 8.93082 28.7995 16.0001V24.8001C28.7995 27.0092 27.0087 28.8001 24.7995 28.8001V28.8001C22.5904 28.8001 20.7995 27.0092 20.7995 24.8001V23.2001C20.7995 20.1073 23.3067 17.6001 26.3995 17.6001H27.9995" stroke="black" stroke-width="2"/>
</g>
</svg>
