<svg width="32" height="32" viewBox="0 0 32 32" fill="none" xmlns="http://www.w3.org/2000/svg">
<g opacity="0.8" clip-path="url(#clip0_1_6077)">
<path d="M1.59991 15.2488C1.59991 12.4943 1.59991 11.117 2.26293 9.99022C2.92595 8.86341 4.12988 8.19456 6.53774 6.85686L11.3377 4.19019C13.6167 2.92413 14.7561 2.2911 15.9999 2.2911C17.2437 2.2911 18.3832 2.92413 20.6621 4.19019L25.4621 6.85686C27.8699 8.19456 29.0739 8.86341 29.7369 9.99022C30.3999 11.117 30.3999 12.4943 30.3999 15.2488V20.8001C30.3999 25.3256 30.3999 27.5883 28.994 28.9942C27.5881 30.4001 25.3254 30.4001 20.7999 30.4001H11.1999C6.67443 30.4001 4.41169 30.4001 3.0058 28.9942C1.59991 27.5883 1.59991 25.3256 1.59991 20.8001V15.2488Z" stroke="black" stroke-width="2"/>
<circle cx="11.894" cy="22.5069" r="1.49333" fill="black"/>
<path d="M11.1468 17.2798C11.9312 17.2798 12.708 17.4343 13.4327 17.7345C14.1574 18.0347 14.8159 18.4747 15.3706 19.0293C15.9253 19.584 16.3652 20.2425 16.6654 20.9672C16.9656 21.6919 17.1201 22.4687 17.1201 23.2531" stroke="black" stroke-width="2" stroke-linecap="round"/>
<path d="M11.1468 12.8003C12.5195 12.8003 13.8789 13.0707 15.1471 13.596C16.4154 14.1213 17.5677 14.8913 18.5384 15.862C19.5091 16.8327 20.2791 17.9851 20.8044 19.2533C21.3297 20.5216 21.6001 21.8809 21.6001 23.2536" stroke="black" stroke-width="2" stroke-linecap="round"/>
</g>
<defs>
<clipPath id="clip0_1_6077">
<rect width="32" height="32" fill="white" transform="translate(0.000305176)"/>
</clipPath>
</defs>
</svg>
