<svg width="48" height="42" viewBox="0 0 48 42" fill="none" xmlns="http://www.w3.org/2000/svg">
<path d="M31.9405 24.1377L32.2658 25.0833L31.9405 24.1377ZM36.9103 22.4277L36.5849 21.4821L36.9103 22.4277ZM39.0899 22.4277L39.4153 21.4821L39.0899 22.4277ZM44.0597 24.1377L43.7344 25.0833L44.0597 24.1377ZM44.5606 36.5509L43.9642 35.7482L44.5606 36.5509ZM40.0108 39.9313L39.4144 39.1286L40.0108 39.9313ZM35.9894 39.9313L36.5858 39.1286L35.9894 39.9313ZM31.4396 36.5509L32.036 35.7482L31.4396 36.5509ZM30.0284 33.9409L31.0261 33.8736L30.0284 33.9409ZM29.6084 27.7212L28.6107 27.7885L29.6084 27.7212ZM46.3918 27.7212L45.3941 27.6538L46.3918 27.7212ZM45.9718 33.9409L44.974 33.8736L45.9718 33.9409ZM36.1439 31.0413C35.7586 30.6456 35.1255 30.6372 34.7299 31.0225C34.3342 31.4078 34.3258 32.0409 34.7111 32.4366L36.1439 31.0413ZM37.1426 33.5001L36.4262 34.1977L37.1426 34.9334L37.859 34.1977L37.1426 33.5001ZM41.2891 30.6755C41.6744 30.2798 41.666 29.6467 41.2703 29.2614C40.8747 28.8761 40.2416 28.8844 39.8563 29.2801L41.2891 30.6755ZM3.1479 10.1694L2.69765 9.27654H2.69765L3.1479 10.1694ZM19.9479 1.69802L19.4976 0.805116V0.805116L19.9479 1.69802ZM19.9479 39.9685L20.3981 39.0756H20.3981L19.9479 39.9685ZM3.1479 31.4971L3.59815 30.6042L3.59815 30.6042L3.1479 31.4971ZM39.2523 10.1694L38.802 11.0623L39.2523 10.1694ZM22.4523 1.69802L22.9025 0.805116L22.4523 1.69802ZM20.2001 39.188C20.2001 39.7403 20.6478 40.188 21.2001 40.188C21.7524 40.188 22.2001 39.7403 22.2001 39.188H20.2001ZM40.2295 12.3576C40.7226 12.1089 40.9208 11.5076 40.6722 11.0144C40.4235 10.5213 39.8222 10.3231 39.329 10.5718L40.2295 12.3576ZM3.07118 10.5718C2.57804 10.3231 1.97669 10.5213 1.72803 11.0144C1.47936 11.5076 1.67754 12.1089 2.17068 12.3576L3.07118 10.5718ZM39.8001 22.9511C39.8001 23.5034 40.2478 23.9511 40.8001 23.9511C41.3524 23.9511 41.8001 23.5034 41.8001 22.9511H39.8001ZM30.7503 36.9041C31.2435 36.6555 31.4417 36.0541 31.193 35.561C30.9443 35.0678 30.343 34.8696 29.8498 35.1183L30.7503 36.9041ZM22.4523 39.9685L22.002 39.0756L22.4523 39.9685ZM32.2658 25.0833L37.2356 23.3733L36.5849 21.4821L31.6151 23.1921L32.2658 25.0833ZM38.7645 23.3733L43.7344 25.0833L44.3851 23.1921L39.4153 21.4821L38.7645 23.3733ZM43.9642 35.7482L39.4144 39.1286L40.6072 40.734L45.157 37.3536L43.9642 35.7482ZM36.5858 39.1286L32.036 35.7482L30.8432 37.3536L35.393 40.734L36.5858 39.1286ZM31.0261 33.8736L30.6061 27.6538L28.6107 27.7885L29.0307 34.0083L31.0261 33.8736ZM45.3941 27.6538L44.974 33.8736L46.9695 34.0083L47.3895 27.7885L45.3941 27.6538ZM39.4144 39.1286C38.5686 39.757 37.4316 39.757 36.5858 39.1286L35.393 40.734C36.947 41.8885 39.0532 41.8885 40.6072 40.734L39.4144 39.1286ZM37.2356 23.3733C37.732 23.2025 38.2682 23.2025 38.7645 23.3733L39.4153 21.4821C38.4972 21.1662 37.503 21.1662 36.5849 21.4821L37.2356 23.3733ZM32.036 35.7482C31.4517 35.3141 31.0772 34.6291 31.0261 33.8736L29.0307 34.0083C29.1204 35.3363 29.7797 36.5635 30.8432 37.3536L32.036 35.7482ZM45.1569 37.3536C46.2205 36.5635 46.8798 35.3363 46.9695 34.0083L44.974 33.8736C44.923 34.6291 44.5485 35.3141 43.9642 35.7482L45.1569 37.3536ZM43.7344 25.0833C44.7742 25.4411 45.4728 26.4888 45.3941 27.6538L47.3895 27.7885C47.527 25.7526 46.308 23.8538 44.3851 23.1921L43.7344 25.0833ZM31.6151 23.1921C29.6922 23.8538 28.4732 25.7526 28.6107 27.7885L30.6061 27.6538C30.5274 26.4888 31.226 25.4411 32.2658 25.0833L31.6151 23.1921ZM34.7111 32.4366L36.4262 34.1977L37.859 32.8024L36.1439 31.0413L34.7111 32.4366ZM37.859 34.1977L41.2891 30.6755L39.8563 29.2801L36.4262 32.8024L37.859 34.1977ZM2.6001 28.9714V12.6951H0.600098V28.9714H2.6001ZM3.59815 11.0623L20.3981 2.59092L19.4976 0.805116L2.69765 9.27654L3.59815 11.0623ZM20.3981 39.0756L3.59815 30.6042L2.69765 32.39L19.4977 40.8614L20.3981 39.0756ZM39.7025 9.27654L22.9025 0.805116L22.002 2.59092L38.802 11.0623L39.7025 9.27654ZM20.2001 20.8333V39.188H22.2001V20.8333H20.2001ZM21.6503 21.7262L40.2295 12.3576L39.329 10.5718L20.7498 19.9403L21.6503 21.7262ZM2.17068 12.3576L20.7498 21.7262L21.6503 19.9403L3.07118 10.5718L2.17068 12.3576ZM39.8001 12.6951V22.9511H41.8001V12.6951H39.8001ZM29.8498 35.1183L22.002 39.0756L22.9025 40.8614L30.7503 36.9041L29.8498 35.1183ZM19.4976 40.8614C20.5691 41.4017 21.8311 41.4017 22.9025 40.8614L22.002 39.0756C21.497 39.3303 20.9032 39.3303 20.3981 39.0756L19.4976 40.8614ZM20.3981 2.59092C20.9032 2.33623 21.497 2.33623 22.002 2.59092L22.9025 0.805116C21.8311 0.264831 20.5691 0.264831 19.4976 0.805116L20.3981 2.59092ZM38.802 11.0623C39.4106 11.3692 39.8001 11.9998 39.8001 12.6951H41.8001C41.8001 11.2513 40.9912 9.92632 39.7025 9.27654L38.802 11.0623ZM2.6001 12.6951C2.6001 11.9998 2.98957 11.3692 3.59815 11.0623L2.69765 9.27654C1.40904 9.92633 0.600098 11.2513 0.600098 12.6951H2.6001ZM0.600098 28.9714C0.600098 30.4152 1.40904 31.7402 2.69765 32.39L3.59815 30.6042C2.98957 30.2973 2.6001 29.6667 2.6001 28.9714H0.600098Z" fill="#8AA2A9"/>
</svg>
