<svg width="46" height="40" viewBox="0 0 46 40" fill="none" xmlns="http://www.w3.org/2000/svg">
<path d="M2.7001 12.5999H43.3001M22.6501 1.7499L16.0218 8.83528C13.8773 11.1277 13.2717 14.4624 14.4732 17.3625L22.6501 37.0999M23.3501 1.7499L29.9784 8.83528C32.1228 11.1277 32.7285 14.4624 31.527 17.3625L23.3501 37.0999M43.1636 15.3955L26.1236 36.6956C24.5223 38.6972 21.4779 38.6972 19.8766 36.6956L2.83661 15.3955C1.56336 13.804 1.69044 11.5096 3.13166 10.0683L9.45695 3.74305C10.9572 2.24276 12.9921 1.3999 15.1138 1.3999H30.8864C33.0081 1.3999 35.043 2.24276 36.5432 3.74305L42.8685 10.0683C44.3098 11.5096 44.4368 13.804 43.1636 15.3955Z" stroke="#8AA2A9" stroke-width="2" stroke-linecap="round" stroke-linejoin="round"/>
</svg>
