<svg width="32" height="32" viewBox="0 0 32 32" fill="none" xmlns="http://www.w3.org/2000/svg">
<g opacity="0.8">
<mask id="mask0_1_6089" style="mask-type:alpha" maskUnits="userSpaceOnUse" x="1" y="1" width="30" height="30">
<path d="M10.6681 12.9411H21.3345M10.6681 18.0782H17.3346M29.3343 26.0728V9.08838C29.3343 5.54201 26.3496 2.66711 22.6678 2.66711H9.33474C5.65292 2.66711 2.66821 5.54201 2.66821 9.08838V26.0728C2.66821 27.826 4.45137 29.0639 6.17808 28.5095L9.62019 27.4044C10.2911 27.1889 11.0234 27.2391 11.656 27.5437L14.8087 29.0621C15.5595 29.4237 16.4431 29.4237 17.1938 29.0621L20.3466 27.5437C20.9791 27.2391 21.7114 27.1889 22.3824 27.4044L25.8245 28.5095C27.5512 29.0639 29.3343 27.826 29.3343 26.0728Z" stroke="white" stroke-width="2" stroke-linecap="round"/>
</mask>
<g mask="url(#mask0_1_6089)">
<rect x="-1.32788" y="-1.33301" width="34.666" height="34.666" fill="black"/>
</g>
</g>
</svg>
