<svg width="100" height="27" viewBox="0 0 100 27" fill="none" xmlns="http://www.w3.org/2000/svg">
<path d="M25.4321 10.4025C25.431 12.9762 24.4637 15.4475 22.7368 17.2887C21.0099 19.1299 18.6602 20.1951 16.1894 20.2569V9.79538H6.55566C6.71957 7.24914 7.82566 4.86837 9.64113 3.15422C11.4566 1.44005 13.8398 0.526121 16.2892 0.604785C18.7387 0.683449 21.0633 1.74856 22.7738 3.57596C24.4845 5.40335 25.4191 7.85058 25.4321 10.4025Z" fill="#8AA2A9"/>
<path d="M16.1887 20.257V26.2245H0.362305V9.79541H6.55494C6.55494 9.99533 6.55494 10.2027 6.55494 10.4025C6.55399 11.6963 6.79788 12.9776 7.27266 14.1731C7.74747 15.3687 8.44383 16.4551 9.32199 17.3703C10.2002 18.2854 11.2429 19.0114 12.3906 19.5068C13.5383 20.0021 14.7686 20.257 16.0109 20.257H16.1887Z" fill="#8AA2A9"/>
<path d="M36.7578 7.16895H44.7159C48.7973 7.16895 51.348 9.01767 51.348 12.8851C51.348 16.7525 48.7973 18.7925 44.5529 18.7925H40.2319V24.9231H36.7578V7.16895ZM44.3693 15.6689C46.6089 15.6689 47.8485 14.9623 47.8485 13.0126C47.8485 10.9992 46.5833 10.2926 44.4863 10.2926H40.2574V15.6423L44.3693 15.6689Z" fill="#8AA2A9"/>
<path d="M51.1309 21.7355C51.1309 19.8655 52.3245 18.7447 54.4723 18.139L59.9666 16.5878L60.1093 16.5453C60.1093 16.5453 60.1093 16.4337 60.1093 16.3859C60.1093 14.8771 59.2424 14.1971 57.7017 14.1971C56.1611 14.1971 54.9211 15.0471 54.2018 17.1403L51.3757 16.0459C52.4929 12.9115 54.8549 11.6951 57.8445 11.6951C61.5788 11.6951 63.5633 13.6607 63.5633 16.3115V20.859C63.5633 21.8099 63.864 22.3199 64.6345 22.3199C65.0423 22.3103 65.4427 22.2012 65.8029 22.0011V24.6574C65.008 24.9874 64.1634 25.1672 63.3081 25.1887C61.5532 25.1887 60.2011 24.1952 60.2011 22.2721V22.0065H60.1093C59.6833 22.9891 58.9885 23.8194 58.1125 24.3937C57.236 24.9681 56.2165 25.2611 55.1817 25.2365C52.4879 25.1939 51.1309 23.4143 51.1309 21.7355ZM56.2016 22.4634C57.1223 22.427 58.0111 22.1031 58.7527 21.5337C59.1837 21.2096 59.5344 20.7832 59.7755 20.2899C60.0171 19.7966 60.142 19.2504 60.1399 18.6968C60.1399 18.665 60.1399 18.4791 60.1399 18.4791L59.936 18.5481L56.0693 19.9347C55.1817 20.2534 54.5745 20.4978 54.5745 21.199C54.5641 21.8099 55.0538 22.4634 56.2016 22.4634Z" fill="#8AA2A9"/>
<path d="M67.1846 7.16895H70.6792V24.9231H67.1797L67.1846 7.16895Z" fill="#8AA2A9"/>
<path d="M72.6543 7.16895H76.1591V24.9231H72.6543V7.16895Z" fill="#8AA2A9"/>
<path d="M83.9433 25.1939C79.8366 25.1939 77.3115 22.5378 77.3115 18.6066C77.3115 14.5 79.954 11.6526 84.0401 11.6526C88.0097 11.6526 90.6465 14.2079 90.6465 19.0475H80.7649C80.9281 21.0503 81.8617 22.4952 84.1521 22.4952C85.8569 22.4952 87.3001 21.6931 87.7697 19.8975L90.6161 20.8219C89.5553 23.8977 86.9537 25.1939 83.9433 25.1939ZM87.0505 16.88C86.6881 15.1057 85.6017 14.2769 84.0401 14.2769C83.2969 14.2195 82.5601 14.4553 81.9761 14.9375C81.3921 15.4198 81.0033 16.1132 80.8873 16.88H87.0505Z" fill="#8AA2A9"/>
<path d="M97.4046 22.4897C95.9814 22.4897 95.5118 22.0276 95.5118 20.3966V14.5689H99.2462V11.9658H90.063V14.5689H92.0478V21.815C92.0478 23.94 93.0678 25.1672 96.0678 25.1672C97.1814 25.1799 98.2934 25.0659 99.3838 24.8272V22.2772C98.731 22.4053 98.0686 22.4765 97.4046 22.4897Z" fill="#8AA2A9"/>
<path d="M92.0078 7.16895C92.1494 8.08775 92.5662 8.93655 93.1982 9.59463C93.8302 10.2527 94.6446 10.6865 95.5278 10.8345V7.16895H92.0078Z" fill="#8AA2A9"/>
</svg>
