<svg width="32" height="32" viewBox="0 0 32 32" fill="none" xmlns="http://www.w3.org/2000/svg">
<g opacity="0.8">
<path d="M21.6884 7.46674H20.6884C20.6884 8.01902 21.1361 8.46674 21.6884 8.46674V7.46674ZM10.3106 7.46674V8.46674C10.8629 8.46674 11.3106 8.01902 11.3106 7.46674H10.3106ZM27.7995 16.0001V20.2667H29.7995V16.0001H27.7995ZM20.2662 27.8001H11.7329V29.8001H20.2662V27.8001ZM4.19952 20.2667V16.0001H2.19952V20.2667H4.19952ZM11.7329 27.8001C9.69326 27.8001 8.26416 27.798 7.18441 27.6528C6.13343 27.5115 5.56438 27.2514 5.15631 26.8433L3.74209 28.2575C4.5837 29.0991 5.64516 29.4638 6.91792 29.6349C8.16191 29.8022 9.7498 29.8001 11.7329 29.8001V27.8001ZM2.19952 20.2667C2.19952 22.2498 2.1974 23.8377 2.36465 25.0817C2.53577 26.3544 2.90049 27.4159 3.74209 28.2575L5.15631 26.8433C4.74824 26.4352 4.48812 25.8662 4.34682 24.8152C4.20165 23.7354 4.19952 22.3063 4.19952 20.2667H2.19952ZM27.7995 20.2667C27.7995 22.3063 27.7974 23.7354 27.6522 24.8152C27.5109 25.8662 27.2508 26.4352 26.8427 26.8433L28.257 28.2575C29.0986 27.4159 29.4633 26.3544 29.6344 25.0817C29.8016 23.8377 29.7995 22.2498 29.7995 20.2667H27.7995ZM20.2662 29.8001C22.2492 29.8001 23.8371 29.8022 25.0811 29.6349C26.3539 29.4638 27.4153 29.0991 28.257 28.2575L26.8427 26.8433C26.4347 27.2514 25.8656 27.5115 24.8146 27.6528C23.7349 27.798 22.3058 27.8001 20.2662 27.8001V29.8001ZM21.6884 8.46674C23.7528 8.46674 24.7817 8.47159 25.4688 8.6047C26.0157 8.71065 26.3049 8.88569 26.8427 9.42352L28.257 8.00931C27.5451 7.29747 26.9149 6.84767 25.8492 6.6412C24.9236 6.46189 23.6466 6.46674 21.6884 6.46674V8.46674ZM29.7995 16.0001C29.7995 14.017 29.8016 12.4291 29.6344 11.1851C29.4633 9.91237 29.0986 8.85092 28.257 8.00931L26.8427 9.42352C27.2508 9.83159 27.5109 10.4006 27.6522 11.4516C27.7974 12.5314 27.7995 13.9605 27.7995 16.0001H29.7995ZM10.3106 6.46674C8.3524 6.46674 7.07541 6.46189 6.14986 6.6412C5.08413 6.84767 4.45394 7.29747 3.74209 8.00931L5.15631 9.42352C5.69414 8.88569 5.98334 8.71065 6.53025 8.6047C7.21733 8.47159 8.24622 8.46674 10.3106 8.46674V6.46674ZM4.19952 16.0001C4.19952 13.9605 4.20165 12.5314 4.34682 11.4516C4.48812 10.4006 4.74824 9.83159 5.15631 9.42352L3.74209 8.00931C2.90049 8.85092 2.53577 9.91237 2.36465 11.1851C2.1974 12.4291 2.19952 14.017 2.19952 16.0001H4.19952ZM14.5773 4.20007H17.4217V2.20007H14.5773V4.20007ZM17.4217 4.20007C19.2259 4.20007 20.6884 5.66261 20.6884 7.46674H22.6884C22.6884 4.55804 20.3304 2.20007 17.4217 2.20007V4.20007ZM14.5773 2.20007C11.6686 2.20007 9.31064 4.55804 9.31064 7.46674H11.3106C11.3106 5.66261 12.7732 4.20007 14.5773 4.20007V2.20007Z" fill="black"/>
<circle cx="15.9999" cy="17.6002" r="6.4" stroke="black" stroke-width="2"/>
</g>
</svg>
