<svg width="32" height="32" viewBox="0 0 32 32" fill="none" xmlns="http://www.w3.org/2000/svg">
<g opacity="0.8">
<mask id="mask0_1_6110" style="mask-type:alpha" maskUnits="userSpaceOnUse" x="3" y="3" width="26" height="27">
<path d="M5.2 26.3755L7.87668 21.701C8.63501 20.058 10.7644 19.6133 12.1169 20.8155C13.4593 22.0088 15.5712 21.581 16.3434 19.9594L18.0352 16.4066C19.4149 13.5091 23.1946 12.7556 25.58 14.9024L28 17.2005M8.8 28.0005H23.2C25.851 28.0005 28 25.8515 28 23.2005V8.80049C28 6.14952 25.851 4.00049 23.2 4.00049H8.8C6.14903 4.00049 4 6.14952 4 8.80049V23.2005C4 25.8515 6.14903 28.0005 8.8 28.0005ZM14.8 12.4005C14.8 13.726 13.7255 14.8005 12.4 14.8005C11.0745 14.8005 10 13.726 10 12.4005C10 11.075 11.0745 10.0005 12.4 10.0005C13.7255 10.0005 14.8 11.075 14.8 12.4005Z" stroke="black" stroke-width="2" stroke-linejoin="round"/>
</mask>
<g mask="url(#mask0_1_6110)">
<rect x="-1.33594" y="-1.33301" width="34.6667" height="34.6667" fill="black"/>
</g>
</g>
</svg>
