<svg width="56" height="56" viewBox="0 0 56 56" fill="none" xmlns="http://www.w3.org/2000/svg">
<g filter="url(#filter0_b_1_1721)">
<rect x="1" y="1" width="54" height="54" rx="27" stroke="url(#paint0_linear_1_1721)" stroke-width="2"/>
<path d="M31.3087 15.1135L30.5799 14.4288L30.5799 14.4288L31.3087 15.1135ZM17.1052 30.2332L16.3763 29.5486L16.3763 29.5486L17.1052 30.2332ZM25.2394 31.3115L24.2471 31.1872L25.2394 31.3115ZM24.0799 40.5687L23.0876 40.4444L23.0876 40.4444L24.0799 40.5687ZM24.6913 40.8865L25.4201 41.5712L25.4201 41.5712L24.6913 40.8865ZM38.8948 25.7668L39.6237 26.4514L39.6237 26.4514L38.8948 25.7668ZM30.7606 24.6885L29.7684 24.5643L30.7606 24.6885ZM31.9201 15.4313L30.9279 15.307V15.307L31.9201 15.4313ZM30.5799 14.4288L16.3763 29.5486L17.834 30.9179L32.0376 15.7981L30.5799 14.4288ZM17.3602 31.8814H24.883V29.8814H17.3602V31.8814ZM24.2471 31.1872L23.0876 40.4444L25.0721 40.693L26.2316 31.4357L24.2471 31.1872ZM25.4201 41.5712L39.6237 26.4514L38.166 25.0821L23.9624 40.2019L25.4201 41.5712ZM38.6398 24.1186H31.117V26.1186H38.6398V24.1186ZM31.7529 24.8128L32.9124 15.5556L30.9279 15.307L29.7684 24.5643L31.7529 24.8128ZM31.117 24.1186C31.5632 24.1186 31.7912 24.5069 31.7529 24.8128L29.7684 24.5643C29.673 25.3258 30.2362 26.1186 31.117 26.1186V24.1186ZM39.6237 26.4514C40.0322 26.0165 40.0783 25.4341 39.9022 24.9866C39.7251 24.5364 39.2756 24.1186 38.6398 24.1186V26.1186C38.3237 26.1186 38.1144 25.905 38.0411 25.7189C37.969 25.5355 37.9827 25.2771 38.166 25.0821L39.6237 26.4514ZM23.0876 40.4444C23.0104 41.061 23.3363 41.5974 23.8164 41.847C24.3053 42.1012 24.9649 42.0558 25.4201 41.5712L23.9624 40.2019C24.1751 39.9755 24.5063 39.9516 24.7389 40.0725C24.9627 40.1888 25.1042 40.4373 25.0721 40.693L23.0876 40.4444ZM24.883 31.8814C24.4368 31.8814 24.2088 31.4931 24.2471 31.1872L26.2316 31.4357C26.327 30.6742 25.7638 29.8814 24.883 29.8814V31.8814ZM16.3763 29.5486C15.9678 29.9835 15.9217 30.5659 16.0978 31.0134C16.2749 31.4636 16.7244 31.8814 17.3602 31.8814V29.8814C17.6763 29.8814 17.8856 30.095 17.9589 30.2811C18.031 30.4645 18.0172 30.7229 17.834 30.9179L16.3763 29.5486ZM32.0376 15.7981C31.8249 16.0245 31.4936 16.0484 31.2611 15.9275C31.0373 15.8112 30.8958 15.5627 30.9279 15.307L32.9124 15.5556C32.9896 14.939 32.6637 14.4026 32.1836 14.153C31.6947 13.8988 31.0351 13.9442 30.5799 14.4288L32.0376 15.7981Z" fill="url(#paint1_linear_1_1721)"/>
</g>
<defs>
<filter id="filter0_b_1_1721" x="-40" y="-40" width="136" height="136" filterUnits="userSpaceOnUse" color-interpolation-filters="sRGB">
<feFlood flood-opacity="0" result="BackgroundImageFix"/>
<feGaussianBlur in="BackgroundImageFix" stdDeviation="20"/>
<feComposite in2="SourceAlpha" operator="in" result="effect1_backgroundBlur_1_1721"/>
<feBlend mode="normal" in="SourceGraphic" in2="effect1_backgroundBlur_1_1721" result="shape"/>
</filter>
<linearGradient id="paint0_linear_1_1721" x1="57.3333" y1="3.66029e-06" x2="-8.12424" y2="12.119" gradientUnits="userSpaceOnUse">
<stop stop-color="#FBDF06"/>
<stop offset="1" stop-color="#FEB700"/>
</linearGradient>
<linearGradient id="paint1_linear_1_1721" x1="39.5238" y1="15" x2="13.564" y2="19.0668" gradientUnits="userSpaceOnUse">
<stop stop-color="#FBDF06"/>
<stop offset="1" stop-color="#FEB700"/>
</linearGradient>
</defs>
</svg>
