<svg width="33" height="32" viewBox="0 0 33 32" fill="none" xmlns="http://www.w3.org/2000/svg">
<g opacity="0.8">
<mask id="mask0_1_6107" style="mask-type:alpha" maskUnits="userSpaceOnUse" x="0" y="2" width="33" height="27">
<path d="M28.2945 17.9734V15.9757C28.2945 9.3569 22.9213 3.98976 16.2945 3.98976C14.4918 3.98753 12.7118 4.39242 11.087 5.17426C9.46222 5.95611 8.03451 7.09478 6.91017 8.50551M4.33004 14.0027V16.0005C4.33004 22.6266 9.70057 27.9897 16.33 27.9897C18.1276 27.9871 19.902 27.5831 21.5238 26.807C23.1456 26.0309 24.5741 24.9023 25.705 23.5035M1.33008 15.9897L4.27651 13.04L7.35686 15.9897M31.3301 15.9897L28.3836 18.9395L25.3033 15.9897" stroke="black" stroke-width="2" stroke-linecap="round" stroke-linejoin="round"/>
</mask>
<g mask="url(#mask0_1_6107)">
<rect x="-1.33789" y="-1.33301" width="34.6667" height="34.6667" fill="black"/>
</g>
</g>
</svg>
