<svg width="105" height="28" viewBox="0 0 105 28" fill="none" xmlns="http://www.w3.org/2000/svg">
<path d="M88.9639 21.0198V10.1738C88.9639 9.9651 89.137 9.79468 89.3492 9.79468H91.2056C91.4177 9.79468 91.5909 9.9651 91.5909 10.1738V21.0198C91.5909 21.2284 91.4177 21.3989 91.2056 21.3989H89.3492C89.137 21.3989 88.9639 21.2284 88.9639 21.0198Z" fill="#8AA2A9"/>
<path d="M90.2767 8.02545C91.1096 8.02545 91.7848 7.36102 91.7848 6.5414C91.7848 5.72179 91.1096 5.05737 90.2767 5.05737C89.4437 5.05737 88.7686 5.72179 88.7686 6.5414C88.7686 7.36102 89.4437 8.02545 90.2767 8.02545Z" fill="#8AA2A9"/>
<path d="M42.3678 8.18036C42.3678 7.16547 43.1734 6.54696 44.5317 6.54696H49.8597C50.031 6.54696 50.1691 6.411 50.1691 6.24249V4.37356C50.1691 4.20505 50.031 4.06909 49.8597 4.06909H44.5317C41.7899 4.06909 39.8536 5.75228 39.8536 8.17844C39.8536 12.8814 48.1551 13.6244 48.1551 17.0405C48.1551 18.1302 47.2502 18.9229 45.9659 18.9229H44.2807C43.0898 18.9229 42.1167 17.9655 42.1167 16.7935V16.1827C42.1167 15.9739 41.9436 15.8036 41.7314 15.8036H39.9879C39.7758 15.8036 39.6025 15.9739 39.6025 16.1827V16.7935C39.6025 19.3365 41.6983 21.3988 44.2826 21.3988H45.9679C48.6338 21.3988 50.6713 19.5165 50.6713 17.0425C50.6693 11.8186 42.3678 10.8038 42.3678 8.18036Z" fill="#8AA2A9"/>
<path d="M84.4411 4.4502V9.79465H80.4169C77.926 9.79465 75.8887 11.7746 75.8887 14.2506V16.9449C75.8887 19.3959 77.926 21.4008 80.4169 21.4008H86.572C86.7841 21.4008 86.9573 21.2303 86.9573 21.0217V4.4502C86.9573 4.24147 86.7841 4.07104 86.572 4.07104H84.8284C84.6144 4.07104 84.4411 4.24147 84.4411 4.4502ZM84.4411 18.9229H80.4169C79.3097 18.9229 78.4047 18.0325 78.4047 16.9429V14.2506C78.4047 13.161 79.3097 12.2706 80.4169 12.2706H84.4411V18.9229Z" fill="#8AA2A9"/>
<path d="M71.3658 10.1738V18.923H68.3554C67.2228 18.8981 66.3432 18.0804 66.3432 16.9679V10.1738C66.3432 9.9651 66.17 9.79468 65.958 9.79468H64.2143C64.0023 9.79468 63.8291 9.9651 63.8291 10.1738V16.9679C63.8291 19.4151 65.845 21.3989 68.332 21.3989H71.3658V23.1433C71.3658 24.2578 70.2643 25.0736 69.1318 25.0985H66.7343C66.5223 25.0985 66.349 25.2689 66.349 25.4776V27.1934C66.349 27.4021 66.5223 27.5725 66.7343 27.5725H69.1318C71.7433 27.5725 73.88 25.4699 73.88 22.9001V10.1738C73.88 9.9651 73.7067 9.79468 73.4947 9.79468H71.7511C71.5389 9.79468 71.3658 9.9651 71.3658 10.1738Z" fill="#8AA2A9"/>
<path d="M99.972 9.79468H97.9599C97.9481 9.79468 97.9385 9.7966 97.9268 9.7966C95.4263 9.81382 93.4316 11.7612 93.4316 14.2257V14.2506V16.9449V16.9697C93.4316 19.4457 95.4437 21.4008 97.9599 21.4008H99.972C99.9836 21.4008 99.9934 21.3989 100.005 21.3989C102.506 21.3817 104.5 19.4343 104.5 16.9697V16.9449V14.2506V14.2257C104.5 11.7498 102.488 9.79468 99.972 9.79468ZM101.984 16.9507C101.98 18.0555 101.108 18.9153 99.9856 18.923C99.9818 18.923 99.9759 18.923 99.972 18.923H97.9599C97.9599 18.923 97.9599 18.923 97.9579 18.923C97.4617 18.9115 97.0141 18.7487 96.6678 18.4749C96.224 18.1148 95.9477 17.5691 95.9477 16.943V14.243C95.9517 13.1381 96.8234 12.2783 97.9463 12.2706C97.9501 12.2706 97.9559 12.2706 97.9599 12.2706H99.972C99.972 12.2706 99.972 12.2706 99.974 12.2706C100.47 12.2821 100.918 12.4448 101.264 12.7187C101.708 13.0787 101.984 13.6245 101.984 14.2506V16.9507Z" fill="#8AA2A9"/>
<path d="M54.3037 4.07104H52.5601C52.3481 4.07104 52.1748 4.24147 52.1748 4.4502V21.0197C52.1748 21.2284 52.3481 21.3988 52.5601 21.3988H54.3037C54.5158 21.3988 54.689 21.2284 54.689 21.0197V4.4502C54.689 4.24147 54.5158 4.07104 54.3037 4.07104Z" fill="#8AA2A9"/>
<path d="M58.8573 15.5968L62.2842 10.26C62.4145 10.057 62.2666 9.79468 62.0235 9.79468H59.8965C59.7136 9.79468 59.5442 9.88467 59.443 10.036L56.2809 14.8213C56.2245 14.9074 56.1934 15.0089 56.1934 15.1104V16.085C56.1934 16.1885 56.2245 16.2881 56.2809 16.3743L59.443 21.1576C59.5424 21.3089 59.7136 21.3989 59.8965 21.3989H62.0059C62.257 21.3989 62.4087 21.127 62.2744 20.9183L58.8573 15.5968Z" fill="#8AA2A9"/>
<path d="M1.30957 24.4684C1.30957 25.9792 2.32925 27.0228 3.79456 27.3483C3.98916 27.3905 4.52624 27.5743 7.89471 27.5743C10.9713 27.5743 28.5316 27.5743 28.5316 27.5743V9.98608C2.36039 17.7012 1.30957 22.9326 1.30957 24.4684Z" fill="#8AA2A9"/>
<path d="M0.5 13.7872C26.2353 8.85828 31.7813 5.8653 31.7813 4.0768C31.7813 2.56212 28.5335 2.13319 28.5335 2.13319V0H0.5V13.7872Z" fill="#8AA2A9"/>
</svg>
