<svg width="32" height="32" viewBox="0 0 32 32" fill="none" xmlns="http://www.w3.org/2000/svg">
<g opacity="0.8">
<mask id="mask0_1_6113" style="mask-type:alpha" maskUnits="userSpaceOnUse" x="1" y="2" width="30" height="29">
<path d="M14.7893 3.95838C15.2658 2.92522 16.7342 2.92522 17.2107 3.95838L20.2016 10.4425C20.3958 10.8636 20.7949 11.1535 21.2553 11.2081L28.3463 12.0489C29.4762 12.1828 29.93 13.5794 29.0946 14.3518L23.8521 19.2C23.5116 19.5149 23.3592 19.984 23.4496 20.4388L24.8412 27.4425C25.0629 28.5585 23.875 29.4216 22.8822 28.8658L16.6513 25.378C16.2466 25.1515 15.7534 25.1515 15.3487 25.378L9.11782 28.8658C8.125 29.4216 6.93705 28.5585 7.15879 27.4425L8.55043 20.4388C8.6408 19.984 8.48838 19.5149 8.14793 19.2L2.90537 14.3518C2.07004 13.5794 2.52379 12.1828 3.65365 12.0489L10.7447 11.2081C11.2051 11.1535 11.6042 10.8636 11.7984 10.4425L14.7893 3.95838Z" stroke="black" stroke-width="2"/>
</mask>
<g mask="url(#mask0_1_6113)">
<rect x="-1.33203" y="-1.33325" width="34.6667" height="34.6667" fill="black"/>
</g>
</g>
</svg>
