<svg width="32" height="32" viewBox="0 0 32 32" fill="none" xmlns="http://www.w3.org/2000/svg">
<g opacity="0.8">
<mask id="mask0_1_6104" style="mask-type:alpha" maskUnits="userSpaceOnUse" x="3" y="1" width="26" height="30">
<path d="M25.0786 13.7762L24.1219 14.067L24.1277 14.0863L24.1344 14.1054L25.0786 13.7762ZM27.728 21.3757L28.6841 21.0826L28.6786 21.0644L28.6723 21.0465L27.728 21.3757ZM24.1224 28.3759L23.6313 27.5048L24.1224 28.3759ZM21.318 11.293C20.798 11.4792 20.5275 12.0516 20.7136 12.5716C20.8998 13.0915 21.4723 13.3621 21.9922 13.1759L21.318 11.293ZM21.6343 12.9643L22.5904 12.6712V12.6712L21.6343 12.9643ZM18.2166 14.1356L17.2605 14.4287L17.2631 14.4369L17.2657 14.4451L18.2166 14.1356ZM15.5377 11.5693L15.1913 10.6313L15.5377 11.5693ZM14.492 14.2356L13.536 14.5287L14.492 14.2356ZM12.491 22.3383C12.6766 22.8585 13.2488 23.1296 13.7689 22.944C14.2891 22.7583 14.5602 22.1862 14.3746 21.666L12.491 22.3383ZM9.51221 11.0176L8.55613 11.3107L8.56278 11.3324L8.5704 11.3538L9.51221 11.0176ZM13.1851 9.89849L14.1406 9.60365L14.1354 9.58665L14.1295 9.56985L13.1851 9.89849ZM10.267 7.98477L10.6543 8.90673H10.6543L10.267 7.98477ZM8.41834 20.795L8.16258 21.7617H8.16258L8.41834 20.795ZM13.1259 23.0748C13.6598 23.2161 14.2071 22.8977 14.3484 22.3638C14.4896 21.8299 14.1713 21.2826 13.6374 21.1413L13.1259 23.0748ZM5.91942 21.2071L5.0189 20.7723L5.91942 21.2071ZM8.05976 20.6955L8.31178 19.7278L8.31178 19.7278L8.05976 20.6955ZM7.0495 23.8473L7.45518 22.9333L7.44108 22.9271L7.4268 22.9212L7.0495 23.8473ZM18.1645 28.7806L17.7588 29.6947L17.7777 29.7031L17.797 29.7107L18.1645 28.7806ZM20.9192 14.0435C21.0811 14.5716 21.6404 14.8684 22.1684 14.7065C22.6964 14.5446 22.9933 13.9853 22.8314 13.4573L20.9192 14.0435ZM17.5195 15.2246C17.6904 15.7498 18.2547 16.0369 18.7799 15.866C19.305 15.695 19.5922 15.1307 19.4212 14.6056L17.5195 15.2246ZM13.8458 15.5394C14.0077 16.0674 14.567 16.3642 15.095 16.2023C15.623 16.0405 15.9199 15.4812 15.758 14.9532L13.8458 15.5394ZM4.56186 6.57968L3.65076 6.16749H3.65076L4.56186 6.57968ZM5.93022 4.62334L5.22843 3.91096L5.93022 4.62334ZM8.05144 3.20961L7.66268 2.28827L8.05144 3.20961ZM13.4534 3.20961L13.0646 4.13095V4.13095L13.4534 3.20961ZM15.5746 4.62334L14.8728 5.33572H14.8728L15.5746 4.62334ZM16.0318 6.99187C16.2595 7.49506 16.852 7.71842 17.3551 7.49078C17.8583 7.26313 18.0817 6.67067 17.854 6.16749L16.0318 6.99187ZM5.22842 14.4653C5.62186 14.8529 6.25501 14.8482 6.6426 14.4547C7.03019 14.0613 7.02545 13.4281 6.63201 13.0406L5.22842 14.4653ZM4.56186 11.7966L5.47296 11.3844L4.56186 11.7966ZM24.1344 14.1054L26.7838 21.7049L28.6723 21.0465L26.0229 13.447L24.1344 14.1054ZM26.772 21.6688C27.1745 22.9817 27.0184 24.0342 26.5068 24.9343C25.9739 25.8719 25.0037 26.7311 23.6313 27.5048L24.6135 29.247C26.1549 28.378 27.4653 27.2953 28.2456 25.9226C29.0472 24.5124 29.237 22.8861 28.6841 21.0826L26.772 21.6688ZM26.0354 13.4854C25.7422 12.5206 25.2508 11.6297 24.3223 11.1943C23.4128 10.7678 22.3708 10.916 21.318 11.293L21.9922 13.1759C22.878 12.8588 23.2862 12.9174 23.4731 13.0051C23.641 13.0838 23.892 13.3109 24.1219 14.067L26.0354 13.4854ZM19.4741 12.4926C19.7151 12.3914 19.9365 12.4176 20.1415 12.5377C20.3639 12.6679 20.5746 12.9194 20.6782 13.2574L22.5904 12.6712C22.1303 11.1705 20.5118 9.88745 18.6995 10.6487L19.4741 12.4926ZM18.6995 10.6487C17.8921 10.9879 17.356 11.5756 17.1447 12.3432C16.9504 13.0489 17.0639 13.7874 17.2605 14.4287L19.1727 13.8425C19.027 13.3674 19.0229 13.0556 19.0729 12.8741C19.1059 12.7544 19.176 12.6178 19.4741 12.4926L18.6995 10.6487ZM15.8841 12.5074C16.2033 12.3896 16.3378 12.4305 16.3758 12.4449C16.4272 12.4644 16.5196 12.5216 16.6401 12.7076C16.7631 12.8975 16.8729 13.1565 16.9778 13.4752C17.0955 13.8325 17.1498 14.0676 17.2605 14.4287L19.1727 13.8425C19.1123 13.6453 18.9897 13.1906 18.8775 12.8497C18.7525 12.4701 18.5792 12.0225 18.3188 11.6204C18.0559 11.2145 17.6646 10.7945 17.0845 10.5747C16.4911 10.3498 15.8463 10.3894 15.1913 10.6313L15.8841 12.5074ZM15.1913 10.6313C14.4404 10.9085 13.8807 11.3821 13.5757 12.0375C13.2838 12.6648 13.2833 13.3348 13.3871 13.9191L15.3563 13.5691C15.2947 13.2231 15.3301 13.0078 15.389 12.8813C15.4348 12.7829 15.5407 12.6342 15.8841 12.5074L15.1913 10.6313ZM13.3871 13.9191C13.424 14.1263 13.4752 14.3304 13.536 14.5287L15.4481 13.9425C15.4075 13.8101 15.3769 13.6853 15.3563 13.5691L13.3871 13.9191ZM14.3746 21.666L10.454 10.6815L8.5704 11.3538L12.491 22.3383L14.3746 21.666ZM12.2295 10.1933L13.4161 14.0389L15.3272 13.4492L14.1406 9.60365L12.2295 10.1933ZM13.4161 14.0389L13.4614 14.1854L15.3724 13.5958L15.3272 13.4492L13.4161 14.0389ZM10.6543 8.90673C11.0505 8.74034 11.264 8.79814 11.4274 8.90605C11.655 9.05632 11.9638 9.43157 12.2406 10.2271L14.1295 9.56985C13.7878 8.58783 13.2834 7.73494 12.5295 7.2371C11.7115 6.6969 10.7753 6.68663 9.87976 7.06281L10.6543 8.90673ZM9.87976 7.06281C8.86024 7.49107 8.39352 8.30546 8.28489 9.15991C8.18687 9.93086 8.37603 10.7233 8.55613 11.3107L10.4683 10.7245C10.3061 10.1956 10.2269 9.74289 10.2689 9.41215C10.2879 9.26271 10.3282 9.17043 10.3714 9.10959C10.4109 9.05385 10.4857 8.97758 10.6543 8.90673L9.87976 7.06281ZM8.16258 21.7617L13.1259 23.0748L13.6374 21.1413L8.67411 19.8282L8.16258 21.7617ZM6.81994 21.6419C6.82438 21.6327 6.82192 21.634 6.83546 21.6268C6.86302 21.6121 6.9298 21.5876 7.05288 21.5774C7.31087 21.5563 7.61334 21.6126 7.80774 21.6632L8.31178 19.7278C8.03843 19.6566 7.47984 19.5356 6.88915 19.5842C6.29787 19.6327 5.44892 19.8817 5.0189 20.7723L6.81994 21.6419ZM5.0189 20.7723C4.61631 21.6061 4.59599 22.4726 4.95498 23.2301C5.3016 23.9615 5.94676 24.4779 6.67221 24.7734L7.4268 22.9212C7.05322 22.769 6.84841 22.5553 6.76229 22.3736C6.68853 22.218 6.65269 21.9883 6.81994 21.6419L5.0189 20.7723ZM23.6313 27.5048C22.6792 28.0415 21.842 28.2856 21.0496 28.3272C20.2546 28.3688 19.4412 28.2099 18.532 27.8506L17.797 29.7107C18.9015 30.1471 20.0048 30.3847 21.1542 30.3244C22.3062 30.264 23.4411 29.9079 24.6135 29.247L23.6313 27.5048ZM20.6782 13.2574L20.9192 14.0435L22.8314 13.4573L22.5904 12.6712L20.6782 13.2574ZM19.4212 14.6056L19.1675 13.826L17.2657 14.4451L17.5195 15.2246L19.4212 14.6056ZM15.758 14.9532L15.4481 13.9425L13.536 14.5287L13.8458 15.5394L15.758 14.9532ZM8.67411 19.8282C8.62505 19.8153 8.57519 19.801 8.51313 19.7833C8.45441 19.7666 8.38442 19.7467 8.31178 19.7278L7.80774 21.6632C7.85529 21.6756 7.90456 21.6895 7.96507 21.7068C8.02223 21.7231 8.09157 21.7429 8.16258 21.7617L8.67411 19.8282ZM18.5702 27.8666L7.45518 22.9333L6.64382 24.7613L17.7588 29.6947L18.5702 27.8666ZM5 9.18814C5 8.40635 5.1687 7.66438 5.47296 6.99187L3.65076 6.16749C3.23225 7.09256 3 8.11503 3 9.18814H5ZM5.47296 6.99187C5.75211 6.37484 6.14645 5.81406 6.63201 5.33571L5.22843 3.91096C4.57211 4.55752 4.03392 5.32057 3.65076 6.16749L5.47296 6.99187ZM6.63201 5.33571C7.14442 4.83092 7.75723 4.41913 8.4402 4.13095L7.66268 2.28827C6.74611 2.67502 5.92093 3.22874 5.22843 3.91096L6.63201 5.33571ZM8.4402 4.13095C9.14592 3.83317 9.92737 3.66699 10.7524 3.66699V1.66699C9.65677 1.66699 8.6112 1.88804 7.66268 2.28827L8.4402 4.13095ZM10.7524 3.66699C11.5774 3.66699 12.3589 3.83317 13.0646 4.13095L13.8421 2.28827C12.8936 1.88804 11.848 1.66699 10.7524 1.66699V3.66699ZM13.0646 4.13095C13.7476 4.41913 14.3604 4.83092 14.8728 5.33572L16.2764 3.91096C15.5839 3.22874 14.7587 2.67502 13.8421 2.28827L13.0646 4.13095ZM14.8728 5.33572C15.3584 5.81406 15.7527 6.37484 16.0318 6.99187L17.854 6.16749C17.4709 5.32057 16.9327 4.55752 16.2764 3.91096L14.8728 5.33572ZM6.63201 13.0406C6.14645 12.5622 5.75211 12.0014 5.47296 11.3844L3.65076 12.2088C4.03392 13.0557 4.57211 13.8188 5.22842 14.4653L6.63201 13.0406ZM5.47296 11.3844C5.1687 10.7119 5 9.96992 5 9.18814H3C3 10.2612 3.23225 11.2837 3.65076 12.2088L5.47296 11.3844Z" fill="black"/>
</mask>
<g mask="url(#mask0_1_6104)">
<rect x="-1.33203" y="-1.33325" width="34.6667" height="34.6667" fill="black"/>
</g>
</g>
</svg>
