<svg width="32" height="32" viewBox="0 0 32 32" fill="none" xmlns="http://www.w3.org/2000/svg">
<g opacity="0.8">
<path d="M22.3996 8.3V8.3C22.3996 8.02163 22.3996 7.88244 22.3938 7.76482C22.2728 5.29892 20.3009 3.32703 17.835 3.20597C17.7174 3.2002 17.5782 3.2002 17.2998 3.2002H14.6994C14.421 3.2002 14.2819 3.2002 14.1642 3.20597C11.6983 3.32703 9.72645 5.29892 9.60538 7.76482C9.59961 7.88244 9.59961 8.02163 9.59961 8.3V8.3" stroke="black" stroke-width="2"/>
<path d="M22.3996 24V24C22.3996 26.6509 20.2507 28.7998 17.5998 28.7998H14.3994C11.7486 28.7998 9.59961 26.6509 9.59961 24V24" stroke="black" stroke-width="2"/>
<path d="M6.39844 16.0002C6.39844 12.2473 6.39844 10.3708 7.39034 9.07814C7.6457 8.74535 7.94359 8.44746 8.27638 8.1921C9.56906 7.2002 11.4455 7.2002 15.1984 7.2002H16.7984C20.5514 7.2002 22.4278 7.2002 23.7205 8.1921C24.0533 8.44746 24.3512 8.74535 24.6065 9.07814C25.5984 10.3708 25.5984 12.2473 25.5984 16.0002V16.0002C25.5984 19.7531 25.5984 21.6296 24.6065 22.9223C24.3512 23.255 24.0533 23.5529 23.7205 23.8083C22.4278 24.8002 20.5514 24.8002 16.7984 24.8002H15.1984C11.4455 24.8002 9.56906 24.8002 8.27638 23.8083C7.94359 23.5529 7.6457 23.255 7.39034 22.9223C6.39844 21.6296 6.39844 19.7531 6.39844 16.0002V16.0002Z" stroke="black" stroke-width="2"/>
</g>
</svg>
